#N canvas 2493 116 909 954 12;
#X obj 102 9 notein 1;
#X obj 110 125 osc~ 200;
#X obj 131 235 *~, f 5;
#X msg 185 153 \$1 20;
#X obj 185 178 line~;
#X obj 126 292 dac~;
#X obj 185 124 dbtorms;
#X obj 106 70 mtof;
#X msg 258 167 0 200;
#X obj 184 70 / 127;
#X obj 184 95 * 100;
#X obj 113 187 *~ 0.75;
#X obj 45 55 print;
#X obj 258 133 del 50;
#X connect 0 0 7 0;
#X connect 0 0 12 0;
#X connect 0 1 9 0;
#X connect 1 0 11 0;
#X connect 2 0 5 0;
#X connect 2 0 5 1;
#X connect 3 0 4 0;
#X connect 4 0 2 1;
#X connect 6 0 3 0;
#X connect 7 0 1 0;
#X connect 8 0 4 0;
#X connect 9 0 10 0;
#X connect 10 0 6 0;
#X connect 11 0 2 0;
#X connect 13 0 8 0;
