#N canvas 1093 159 1152 789 12;
#X obj 262 79 ctlin 1 1;
#X obj 263 123 / 127;
#X obj 188 175 osc~ 200;
#X obj 209 285 *~, f 5;
#X msg 263 203 \$1 20;
#X obj 263 228 line~;
#X obj 204 342 dac~;
#X obj 263 174 dbtorms;
#X obj 263 148 * 100;
#X obj 190 211 *~ 0.5;
#X obj 188 141 mtof;
#X obj 124 120 print;
#X obj 188 79 ctlin 2 1;
#X connect 0 0 1 0;
#X connect 1 0 8 0;
#X connect 2 0 9 0;
#X connect 3 0 6 0;
#X connect 3 0 6 1;
#X connect 4 0 5 0;
#X connect 5 0 3 1;
#X connect 7 0 4 0;
#X connect 8 0 7 0;
#X connect 9 0 3 0;
#X connect 10 0 2 0;
#X connect 12 0 10 0;
#X connect 12 0 11 0;
